<?xml version="1.0" encoding="UTF-8"?>
<svg width="91px" height="90px" viewBox="0 0 91 90" version="1.1" xmlns="http://www.w3.org/2000/svg" xmlns:xlink="http://www.w3.org/1999/xlink">
    <!-- Generator: Sketch 55.1 (78136) - https://sketchapp.com -->
    <title>Group 32</title>
    <desc>Created with Sketch.</desc>
    <defs>
        <polygon id="path-1" points="7.58333375e-05 0.379288 90.8459067 0.379288 90.8459067 89.7866667 7.58333375e-05 89.7866667"></polygon>
    </defs>
    <g id="Page-2" stroke="none" stroke-width="1" fill="none" fill-rule="evenodd">
        <g id="Desktop-HD" transform="translate(-1226.000000, -2342.000000)">
            <g id="Group-32" transform="translate(1226.000000, 2341.000000)">
                <g id="Group-3" transform="translate(0.000000, 0.834167)">
                    <mask id="mask-2" fill="white">
                        <use xlink:href="#path-1"></use>
                    </mask>
                    <g id="Clip-2"></g>
                    <path d="M90.4097133,28.112448 C90.4691667,27.945008 90.5152733,27.7763547 90.5625933,27.606488 C90.6087,27.4366213 90.65602,27.267968 90.6912067,27.096888 C90.7276067,26.9245947 90.7494467,26.7523013 90.7737133,26.580008 C90.7967667,26.4065013 90.8210333,26.234208 90.83438,26.0607013 C90.8460674,25.8859813 90.8460674,25.7124747 90.8460674,25.5377547 C90.8460674,25.3630347 90.8477267,25.189528 90.8368067,25.0160213 C90.8258867,24.8413013 90.8028333,24.669008 90.77978,24.4955013 C90.7567267,24.3219947 90.7348867,24.1497013 90.7009133,23.977408 C90.66694,23.8075413 90.6208333,23.638888 90.57594,23.471448 C90.5298333,23.2991547 90.4837267,23.1280747 90.4242733,22.958208 C90.36846,22.7956213 90.3005133,22.6354613 90.23378,22.4753013 C90.1634067,22.3078613 90.09182,22.1404213 90.0093133,21.9766213 C89.9801933,21.9195947 89.96078,21.8601413 89.9304467,21.8031147 C89.87706,21.7011947 89.8066867,21.6101947 89.7472333,21.5107013 C89.68778,21.411208 89.6416733,21.305648 89.5773667,21.2085813 L78.27274,3.93678133 C76.82038,1.71759467 74.3463933,0.379288 71.6940467,0.379288 L19.15186,0.379288 C16.5007267,0.379288 14.02674,1.71759467 12.57438,3.93678133 L1.26854,21.2085813 C1.20423333,21.305648 1.15812667,21.411208 1.09988667,21.5107013 C1.04043333,21.6101947 0.971273333,21.7011947 0.91546,21.8031147 C0.885126667,21.8601413 0.866926667,21.9195947 0.837806667,21.9766213 C0.7553,22.1404213 0.683713333,22.306648 0.61334,22.4753013 C0.545393333,22.6354613 0.47866,22.7956213 0.421633333,22.9594213 C0.364606667,23.1280747 0.317286667,23.2991547 0.27118,23.471448 C0.225073333,23.638888 0.18018,23.8075413 0.146206667,23.977408 C0.112233333,24.1497013 0.08918,24.3219947 0.0661266667,24.4967147 C0.0442866667,24.6702213 0.0212333333,24.8413013 0.0103133333,25.0160213 C7.58333375e-05,25.189528 7.58333375e-05,25.3630347 7.58333375e-05,25.5377547 C7.58333375e-05,25.7124747 7.58333375e-05,25.8859813 0.0139533333,26.0607013 C0.0248733333,26.234208 0.04914,26.4065013 0.0734066667,26.5787947 C0.09646,26.7523013 0.119513333,26.9245947 0.155913333,27.096888 C0.1911,27.267968 0.23842,27.4366213 0.284526667,27.606488 C0.331846667,27.7763547 0.377953333,27.945008 0.436193333,28.112448 C0.495646667,28.2786747 0.564806667,28.440048 0.63518,28.6026347 C0.70434,28.767648 0.774713333,28.9302347 0.856006667,29.0903947 C0.883913333,29.1437813 0.902113333,29.200808 0.931233333,29.2541947 C0.990686667,29.3633947 1.06591333,29.4616747 1.12900667,29.568448 C1.19088667,29.6691547 1.23820667,29.7747147 1.30494,29.874208 L38.8794467,86.283288 C38.88066,86.2857147 38.8830867,86.2881413 38.8855133,86.290568 C38.9109933,86.3281813 38.94254,86.3621547 38.9692333,86.399768 C39.16458,86.6824747 39.3781267,86.9481947 39.6062333,87.200568 C39.6851,87.287928 39.76882,87.3667947 39.8513267,87.4505147 C40.0491,87.6507147 40.2577933,87.8399947 40.4761933,88.0171413 C40.56234,88.0875147 40.64606,88.157888 40.73706,88.2246213 C41.0319,88.4442347 41.33766,88.6480747 41.6591933,88.824008 C41.67254,88.8300747 41.6846733,88.8397813 41.6992333,88.8482747 C42.0353267,89.0290613 42.38962,89.1783013 42.74998,89.3093413 C42.8543267,89.3469547 42.9611,89.377288 43.0654467,89.410048 C43.3408733,89.4961947 43.61994,89.5677813 43.90386,89.6235947 C44.0167,89.6454347 44.1271133,89.6697013 44.24238,89.6879013 C44.6306467,89.7461413 45.0237667,89.7873947 45.4229533,89.7873947 C45.8209267,89.7873947 46.21162,89.7473547 46.5998867,89.6891147 C46.71758,89.6697013 46.8316333,89.6454347 46.9481133,89.6223813 C47.22718,89.566568 47.50018,89.497408 47.7683267,89.4124747 C47.8799533,89.3785013 47.99158,89.3469547 48.10078,89.3069147 C48.4587133,89.177088 48.8081533,89.0302747 49.14182,88.8507013 C49.1660867,88.8373547 49.1867133,88.8215813 49.21098,88.8082347 C49.5228067,88.6371547 49.81886,88.4405947 50.1039933,88.2282613 C50.19742,88.1591013 50.2859933,88.085088 50.37578,88.012288 C50.59054,87.837568 50.7955933,87.651928 50.99094,87.4541547 C51.07466,87.3692213 51.1595933,87.287928 51.2408867,87.1993547 C51.4665667,86.949408 51.6789,86.683688 51.8742467,86.403408 C51.9021533,86.363368 51.9337,86.3293947 51.9616067,86.2893547 C51.9616067,86.286928 51.9640333,86.2857147 51.9652467,86.283288 L89.54218,29.874208 C89.6077,29.7747147 89.6562333,29.6691547 89.7181133,29.568448 C89.7812067,29.4616747 89.8564333,29.3633947 89.9158867,29.2541947 C89.9437933,29.200808 89.9632067,29.1437813 89.9899,29.0903947 C90.0724067,28.9302347 90.1415667,28.767648 90.21194,28.6026347 C90.2823133,28.440048 90.3514733,28.2786747 90.4097133,28.112448" id="Fill-1" fill="#FEFEFE" mask="url(#mask-2)"></path>
                </g>
                <polygon id="Fill-4" fill="#FEFEFE" points="82.9994013 26.3487467 7.84796133 26.3487467 19.1513747 9.07694667 71.6947747 9.07694667"></polygon>
                <polygon id="Stroke-6" stroke="#010202" stroke-width="1.45516811" stroke-linecap="round" stroke-linejoin="round" points="82.9994013 26.3487467 7.84796133 26.3487467 19.1513747 9.07694667 71.6947747 9.07694667"></polygon>
                <path d="M60.390148,26.3487467 L71.6947747,9.07694667 L82.9994013,26.3487467 L45.4236813,82.75904 L7.84796133,26.3487467 L19.1523453,9.07694667 L30.456972,26.3487467 L45.4233173,9.07694667 L60.389784,26.3487467 Z" id="Combined-Shape" fill="#F3E8CC"></path>
                <polygon id="Stroke-10" stroke="#010202" stroke-width="1.45516811" stroke-linecap="round" stroke-linejoin="round" points="82.9994013 26.3487467 7.84796133 26.3487467 45.4236813 82.75904"></polygon>
                <polygon id="Stroke-14" stroke="#010202" stroke-width="1.45516811" stroke-linecap="round" stroke-linejoin="round" points="30.456972 26.3487467 45.4234387 82.75904 60.3899053 26.3487467"></polygon>
                <polygon id="Stroke-18" stroke="#010202" stroke-width="1.45516811" stroke-linecap="round" stroke-linejoin="round" points="60.389784 26.3487467 30.4568507 26.3487467 45.4233173 9.07694667"></polygon>
                <polygon id="Stroke-22" stroke="#010202" stroke-width="1.45516811" stroke-linecap="round" stroke-linejoin="round" points="30.456972 26.3487467 7.84771867 26.3487467 19.1523453 9.07694667"></polygon>
                <polygon id="Stroke-26" stroke="#010202" stroke-width="1.45516811" stroke-linecap="round" stroke-linejoin="round" points="82.9994013 26.3487467 60.390148 26.3487467 71.6947747 9.07694667"></polygon>
                <path d="M16.1861093,20.3258813 L19.151496,15.938468" id="Stroke-28" stroke="#FEFEFE" stroke-width="1.45516811" stroke-linecap="round" stroke-linejoin="round"></path>
                <path d="M40.9131147,20.3258813 L44.7084213,15.938468" id="Stroke-30" stroke="#FEFEFE" stroke-width="1.45516811" stroke-linecap="round" stroke-linejoin="round"></path>
            </g>
        </g>
    </g>
</svg>