<?xml version="1.0" encoding="UTF-8"?>
<svg width="87px" height="94px" viewBox="0 0 87 94" version="1.1" xmlns="http://www.w3.org/2000/svg" xmlns:xlink="http://www.w3.org/1999/xlink">
    <!-- Generator: Sketch 55.1 (78136) - https://sketchapp.com -->
    <title>Group 58</title>
    <desc>Created with Sketch.</desc>
    <defs>
        <polygon id="path-1" points="0 0.243521127 86.7403899 0.243521127 86.7403899 93.6619718 0 93.6619718"></polygon>
    </defs>
    <g id="Page-2" stroke="none" stroke-width="1" fill="none" fill-rule="evenodd">
        <g id="Desktop-HD" transform="translate(-125.000000, -905.000000)">
            <g id="Group-58" transform="translate(125.000000, 905.000000)">
                <g id="Group-3" transform="translate(0.000000, 0.094908)">
                    <mask id="mask-2" fill="white">
                        <use xlink:href="#path-1"></use>
                    </mask>
                    <g id="Clip-2"></g>
                    <path d="M84.4606667,45.116169 C85.374,44.0337042 86.1193333,42.7946901 86.466,41.4191972 C87.1326667,38.7779296 86.55,36.1540563 85.0926667,34.1403239 C84.706,33.6051127 84.5793333,32.9173662 84.798,32.2938451 C85.1966667,31.1578592 85.4166667,29.9402535 85.4166667,28.6691268 C85.4166667,24.9226479 83.5486667,21.6056761 80.6993333,19.6053239 C80.0593333,19.1557465 79.766,18.3703239 79.8806667,17.5956056 C80.1326667,15.8989859 80.238,14.1729296 80.1686667,12.4294789 C80.1113333,10.9563099 79.8006667,9.47912676 79.078,8.19461972 C77.4713333,5.34194366 74.5513333,3.73497183 71.5166667,3.73497183 C71.1633333,3.73497183 70.8073333,3.75638028 70.4526667,3.80187324 C69.0153333,3.97983099 67.61,4.27687324 66.2406667,4.67159155 C65.5006667,4.88701408 64.6953333,4.71574648 64.1593333,4.15912676 C62.1566667,2.07849296 59.3553333,0.779267606 56.2513333,0.779267606 C55.0486667,0.779267606 53.894,0.977295775 52.8113333,1.33856338 C51.854,1.65835211 50.8353333,1.58476056 49.93,1.13785915 C48.8553333,0.605323944 47.6713333,0.296239437 46.4486667,0.249408451 C46.3366667,0.245394366 46.226,0.24271831 46.1153333,0.24271831 C43.8486667,0.24271831 41.666,1.13785915 40.046,2.74349296 C37.8113333,4.95525352 35.9873333,7.48011268 34.5873333,10.2137042 C33.8753333,11.6039155 32.0926667,12.0668732 30.7726667,11.2346197 C30.4606667,11.0365915 30.142,10.8452535 29.8193333,10.6592676 C28.498,9.89659155 27.0126667,9.50588732 25.5166667,9.50588732 C23.5806667,9.50588732 21.6313333,10.1601831 19.9886667,11.5022254 C19.006,12.3050423 18.2553333,13.3527183 17.694,14.4927183 C16.2806667,17.3587746 15.0793333,20.3345493 14.7286667,23.4360986 C14.4086667,26.2486338 12.8006667,28.3413099 10.5953333,27.9960986 C10.2126667,27.9358873 9.82733333,27.918493 9.44333333,27.918493 C6.93533333,27.918493 4.454,29.0170141 2.72066667,31.1297606 C1.80066667,32.2496901 1.25666667,33.6238451 0.928666667,35.0368028 C-1.06733333,43.6309577 0.175333333,52.5622958 4.45,60.2492676 C7.578,65.874338 12.1393333,70.4370141 17.6233333,73.5880704 C18.822,74.2758169 19.3406667,75.7262394 18.8873333,77.034831 C18.2873333,78.7649014 17.7153333,80.5056761 17.186,82.2638451 C15.9153333,86.488 17.8806667,91.1751127 21.9166667,92.9306056 C23.066,93.4296901 24.242,93.662507 25.3966667,93.662507 C29.114,93.662507 32.5486667,91.2339859 33.67,87.4768028 C33.6726667,87.4647606 33.6766667,87.4527183 33.6806667,87.4406761 C34.1886667,85.7360282 36.1553333,84.8984225 37.718,85.7387042 C41.634,87.8394085 45.9406667,89.1894789 50.4486667,89.6805352 C51.7086667,89.8183521 52.9873333,89.8865915 54.25,89.8865915 L54.2513333,89.8865915 C61.718,89.8865915 68.85,87.5450423 74.9153333,83.1068028 C76.0553333,82.2732113 77.0833333,81.2683521 77.7526667,80.0213099 C79.5286667,76.7163803 79.0033333,72.8521549 76.7326667,70.196169 L76.7153333,70.1760986 C75.866,69.1819437 76.1086667,67.678 77.2113333,66.9768732 C78.5366667,66.1339155 79.8086667,65.1972958 81.0113333,64.1563099 C81.9606667,63.3334225 82.782,62.358 83.3126667,61.216662 C84.9193333,57.7672254 84.1406667,53.8909577 81.662,51.3714507 C81.034,50.7332113 80.3726667,50.1391268 79.702,49.5584225 C81.4353333,48.2752535 83.0406667,46.7980704 84.4606667,45.116169" id="Fill-1" fill="#FEFEFE" mask="url(#mask-2)"></path>
                </g>
                <g id="Group-7" transform="translate(25.333333, 32.207585)">
                    <path d="M0.0582666667,52.8771338 C4.74493333,37.164669 12.1756,22.6403732 21.7929333,9.86755634 C23.5302667,7.56079577 25.7289333,4.83523239 27.9209333,2.33579577 C28.5129333,1.65875352 29.1062667,0.999105634 29.6876,0.368894366" id="Fill-4" fill="#FEFEFE"></path>
                    <path d="M0.0582666667,52.8771338 C4.74493333,37.164669 12.1756,22.6403732 21.7929333,9.86755634 C23.5302667,7.56079577 25.7289333,4.83523239 27.9209333,2.33579577 C28.5129333,1.65875352 29.1062667,0.999105634 29.6876,0.368894366" id="Stroke-6" stroke="#010202" stroke-width="1.5963068" stroke-linecap="round" stroke-linejoin="round"></path>
                </g>
                <path d="M9.4424,36.6836901 C7.86506667,43.0286197 8.56906667,49.9582676 11.9944,56.1172113 C15.4184,62.277493 20.9264,66.5177042 27.1330667,68.500662 C28.7117333,62.1584085 28.0077333,55.2287606 24.5824,49.0684789 C21.1584,42.9095352 15.6504,38.6693239 9.4424,36.6836901 Z" id="Stroke-10" stroke="#010202" stroke-width="1.5963068" fill="#F3E8CC"></path>
                <path d="M12.5049333,42.1906127 C13.2889333,42.6308239 14.0436,43.1138521 14.7662667,43.6396972" id="Stroke-12" stroke="#FEFEFE" stroke-width="1.5963068" stroke-linecap="round" stroke-linejoin="round"></path>
                <path d="M25.5166667,18.2721549 C22.674,23.9868732 21.894,30.7345493 23.882,37.3176479 C25.8713333,43.8994085 30.258,49.0896197 35.7886667,52.2754648 C38.6313333,46.5620845 39.4113333,39.8130704 37.4233333,33.2313099 C35.4353333,26.6482113 31.0486667,21.459338 25.5166667,18.2721549 Z" id="Stroke-16" stroke="#010202" stroke-width="1.5963068" fill="#F3E8CC"></path>
                <path d="M26.628,30.5032042 C26.5666667,28.4198944 26.804,26.3339085 27.3346667,24.3041197" id="Stroke-18" stroke="#FEFEFE" stroke-width="1.5963068" stroke-linecap="round" stroke-linejoin="round"></path>
                <path d="M75.5133333,57.5577324 C71.3106667,53.2854085 65.5653333,50.5411127 59.1266667,50.319 C52.688,50.0955493 46.7573333,52.4370986 42.2546667,56.4083662 C46.456,60.6793521 52.2013333,63.4236479 58.64,63.6470986 C65.0773333,63.8692113 71.0093333,61.529 75.5133333,57.5577324 Z" id="Stroke-22" stroke="#010202" stroke-width="1.5963068" fill="#F3E8CC"></path>
                <path d="M50.8902667,55.5644718 C53.2356,54.6425704 55.7409333,54.1568662 58.2862667,54.1568662 C58.5222667,54.1568662 58.7582667,54.1608803 58.9956,54.1689085 C60.4209333,54.2184155 61.8236,54.4177817 63.1849333,54.7563028" id="Stroke-24" stroke="#FEFEFE" stroke-width="1.5963068" stroke-linecap="round" stroke-linejoin="round"></path>
                <path d="M46.1149333,9.0084507 C42.4989333,12.5903521 40.1642667,17.4902113 39.9522667,22.985493 C39.7416,28.4807746 41.6922667,33.5465493 45.0229333,37.3960563 C48.6389333,33.816831 50.9736,28.9156338 51.1842667,23.4203521 C51.3949333,17.9250704 49.4456,12.8592958 46.1149333,9.0084507 Z" id="Stroke-28" stroke="#010202" stroke-width="1.5963068" fill="#F3E8CC"></path>
                <path d="M44.1546667,20.2275493 C44.4986667,18.6272676 45.0733333,17.0912113 45.8586667,15.6608592" id="Stroke-30" stroke="#FEFEFE" stroke-width="1.5963068" stroke-linecap="round" stroke-linejoin="round"></path>
                <path d="M52.2764,42.8629718 C56.0897333,45.5818451 60.8897333,46.9238873 65.8884,46.2388169 C70.8870667,45.5537465 75.1537333,42.9700141 78.1004,39.3252254 C74.2884,36.6063521 69.4884,35.2643099 64.4884,35.9493803 C59.4897333,36.6344507 55.2230667,39.2181831 52.2764,42.8629718 Z" id="Stroke-34" stroke="#010202" stroke-width="1.5963068" fill="#F3E8CC"></path>
                <path d="M60.5706667,41.0904859 C61.96,40.4295 63.4546667,39.9799225 65.0093333,39.7671761 C65.6933333,39.6721761 66.388,39.6253451 67.072,39.6253451 C68.1226667,39.6253451 69.16,39.7350634 70.1746667,39.9478099" id="Stroke-36" stroke="#FEFEFE" stroke-width="1.5963068" stroke-linecap="round" stroke-linejoin="round"></path>
                <path d="M71.5173333,12.5005704 C66.8746667,13.0799366 62.4306667,15.3438803 59.204,19.2375423 C55.9773333,23.1312042 54.5706667,27.9293732 54.8506667,32.6138099 C59.4906667,32.0357817 63.936,29.771838 67.1626667,25.8781761 C70.3893333,21.9845141 71.796,17.1863451 71.5173333,12.5005704 Z" id="Stroke-40" stroke="#010202" stroke-width="1.5963068" fill="#F3E8CC"></path>
                <path d="M67.1598667,17.7599577 C65.2465333,18.6952394 63.5425333,20.0292535 62.1572,21.7017887" id="Stroke-42" stroke="#FEFEFE" stroke-width="1.5963068" stroke-linecap="round" stroke-linejoin="round"></path>
                <path d="M34.1332,72.0133873 C38.3705333,76.9681056 44.4012,80.3961338 51.3785333,81.1561338 C58.3558667,81.9147958 64.9785333,79.8635986 70.1745333,75.9378239 C65.9385333,70.9831056 59.9078667,67.5550775 52.9318667,66.7950775 C45.9545333,66.0350775 39.3305333,68.0862746 34.1332,72.0133873 Z" id="Stroke-46" stroke="#010202" stroke-width="1.5963068" fill="#F3E8CC"></path>
                <path d="M42.2542667,71.8925634 C44.7356,70.9693239 47.3649333,70.4929859 50.0596,70.4929859 C50.8742667,70.4929859 51.7009333,70.5371408 52.5169333,70.6267887 C53.2929333,70.7110845 54.0596,70.8341831 54.8169333,70.9974225" id="Stroke-48" stroke="#FEFEFE" stroke-width="1.5963068" stroke-linecap="round" stroke-linejoin="round"></path>
                <path d="M76.7757333,28.7640352 C76.7757333,30.0806549 75.7117333,31.1484014 74.3997333,31.1484014 C73.0877333,31.1484014 72.0237333,30.0806549 72.0237333,28.7640352 C72.0237333,27.4474155 73.0877333,26.379669 74.3997333,26.379669 C75.7117333,26.379669 76.7757333,27.4474155 76.7757333,28.7640352" id="Fill-50" fill="#F2D6B8"></path>
                <path d="M76.7757333,28.7640352 C76.7757333,30.0806549 75.7117333,31.1484014 74.3997333,31.1484014 C73.0877333,31.1484014 72.0237333,30.0806549 72.0237333,28.7640352 C72.0237333,27.4474155 73.0877333,26.379669 74.3997333,26.379669 C75.7117333,26.379669 76.7757333,27.4474155 76.7757333,28.7640352 Z" id="Stroke-52" stroke="#010202" stroke-width="1.5963068" stroke-linecap="round" stroke-linejoin="round"></path>
                <path d="M58.6273333,11.928831 C58.6273333,13.2454507 57.5633333,14.3131972 56.2513333,14.3131972 C54.938,14.3131972 53.8753333,13.2454507 53.8753333,11.928831 C53.8753333,10.6122113 54.938,9.54446479 56.2513333,9.54446479 C57.5633333,9.54446479 58.6273333,10.6122113 58.6273333,11.928831" id="Fill-54" fill="#F2D6B8"></path>
                <path d="M58.6273333,11.928831 C58.6273333,13.2454507 57.5633333,14.3131972 56.2513333,14.3131972 C54.938,14.3131972 53.8753333,13.2454507 53.8753333,11.928831 C53.8753333,10.6122113 54.938,9.54446479 56.2513333,9.54446479 C57.5633333,9.54446479 58.6273333,10.6122113 58.6273333,11.928831 Z" id="Stroke-56" stroke="#010202" stroke-width="1.5963068" stroke-linecap="round" stroke-linejoin="round"></path>
            </g>
        </g>
    </g>
</svg>