<?xml version="1.0" encoding="UTF-8"?>
<svg width="101px" height="97px" viewBox="0 0 101 97" version="1.1" xmlns="http://www.w3.org/2000/svg" xmlns:xlink="http://www.w3.org/1999/xlink">
    <!-- Generator: Sketch 55.1 (78136) - https://sketchapp.com -->
    <title>Group 24</title>
    <desc>Created with Sketch.</desc>
    <defs>
        <polygon id="path-1" points="0.000307667798 1.21742113 100.197611 1.21742113 100.197611 97.6056338 0.000307667798 97.6056338"></polygon>
    </defs>
    <g id="Page-2" stroke="none" stroke-width="1" fill="none" fill-rule="evenodd">
        <g id="Desktop-HD" transform="translate(-847.000000, -171.000000)">
            <g id="Group-24" transform="translate(847.000000, 170.000000)">
                <g id="Group-3" transform="translate(0.000000, 0.176666)">
                    <mask id="mask-2" fill="white">
                        <use xlink:href="#path-1"></use>
                    </mask>
                    <g id="Clip-2"></g>
                    <path d="M92.8606625,61.1528577 C91.5701069,60.2074775 90.9556903,58.5398155 91.4214125,57.0143789 C92.2069681,54.4389845 92.3009542,51.8092099 91.6963569,49.1543366 C90.2388708,42.7374634 85.1369681,38.5432099 81.3957597,36.3540549 C80.3212319,35.7251958 79.6212458,34.6250408 79.4655375,33.3952099 C79.1162458,30.6552803 78.7178569,28.3239 77.4329125,25.0861817 C71.5931486,10.3644634 56.6044681,1.21742113 38.3192597,1.21742113 C37.8858014,1.21742113 37.4467319,1.22299859 37.0090653,1.23275915 C18.3998153,1.65664648 4.29488472,11.3182099 1.91437083,25.2786042 C1.43602361,28.084069 1.3925375,30.8002944 1.74463472,33.3547732 C1.89894028,34.4716606 1.78110694,35.5983085 1.51738472,36.6942803 C-0.651309722,45.6698155 -1.41442083,61.4902944 5.64575972,73.6770549 C7.42307917,76.7474493 9.98314861,79.918238 13.8113292,82.1896606 C14.6473847,82.6860549 17.1499403,83.607731 17.1499403,86.5233507 L17.1499403,88.8198718 C17.1499403,94.2788155 21.6023569,97.6057732 27.0928292,97.6057732 L50.8643014,97.6057732 L72.1402319,97.6057732 L77.6924264,97.6057732 C93.3235792,97.6057732 100.198593,85.8805479 100.198593,76.354238 C100.198593,69.930393 97.6160792,64.6359845 92.8606625,61.1528577" id="Fill-1" fill="#FEFEFE" mask="url(#mask-2)"></path>
                </g>
                <path d="M17.0078389,22.5085563 C12.8401861,32.0348662 10.738825,37.2553732 10.738825,47.5806549 C10.738825,53.2431761 9.20699167,56.8197254 8.21943611,58.5375845 C7.90801944,59.079993 8.29518611,59.7492887 8.92503333,59.7492887 L12.2650472,59.7492887 L12.2650472,64.810838 L20.2636861,64.738331 C19.7544778,67.9858099 14.9457556,70.3590211 14.9457556,70.3590211 C16.0721861,73.3234437 25.4160889,78.9887535 36.3297,74.1809789" id="Stroke-4" stroke="#010202" stroke-width="1.67999997" stroke-linecap="round" stroke-linejoin="round"></path>
                <path d="M37.2371569,11.2896254 C53.1502681,10.9270901 64.0961431,18.5849493 68.1852403,28.8893155 C70.4381014,34.5699634 67.2145181,38.3249915 70.4942125,41.2935972 C73.7753097,44.2608085 80.8677542,46.5280479 81.9983931,51.5073296 C82.3981847,53.2670197 81.9128236,54.7868789 81.0010181,56.2523577 C79.7539486,58.2602451 77.7549903,60.3992028 78.8154903,63.1879352 C79.9447264,66.1565408 82.6969764,66.9513296 85.6133514,68.4558507 C88.3950597,69.8906535 90.2551431,72.1927521 90.2551431,76.5306254 C90.2551431,81.8264282 86.1421986,87.251907 76.6145319,88.283738 C64.1676847,89.6320901 48.8058653,85.370907 43.0979625,73.0196113 C37.0463792,59.9251183 45.6748653,54.4313155 45.8403931,46.6089211 C45.9329764,42.2612873 42.6616986,38.3222028 36.3309625,38.3222028 C30.8334764,38.3222028 25.0357958,43.8578366 17.5070875,40.5420338 C11.1202403,37.7282028 11.1314625,30.5430338 11.7178236,27.1059211 C13.2721014,17.9909493 23.5769069,11.600569 37.2371569,11.2896254" id="Fill-6" fill="#C2D2C9"></path>
                <path d="M37.2371569,11.2896254 C53.1502681,10.9270901 64.0961431,18.5849493 68.1852403,28.8893155 C70.4381014,34.5699634 67.2145181,38.3249915 70.4942125,41.2935972 C73.7753097,44.2608085 80.8677542,46.5280479 81.9983931,51.5073296 C82.3981847,53.2670197 81.9128236,54.7868789 81.0010181,56.2523577 C79.7539486,58.2602451 77.7549903,60.3992028 78.8154903,63.1879352 C79.9447264,66.1565408 82.6969764,66.9513296 85.6133514,68.4558507 C88.3950597,69.8906535 90.2551431,72.1927521 90.2551431,76.5306254 C90.2551431,81.8264282 86.1421986,87.251907 76.6145319,88.283738 C64.1676847,89.6320901 48.8058653,85.370907 43.0979625,73.0196113 C37.0463792,59.9251183 45.6748653,54.4313155 45.8403931,46.6089211 C45.9329764,42.2612873 42.6616986,38.3222028 36.3309625,38.3222028 C30.8334764,38.3222028 25.0357958,43.8578366 17.5070875,40.5420338 C11.1202403,37.7282028 11.1314625,30.5430338 11.7178236,27.1059211 C13.2721014,17.9909493 23.5769069,11.600569 37.2371569,11.2896254 Z" id="Stroke-8" stroke="#010202" stroke-width="1.67999997" stroke-linecap="round" stroke-linejoin="round"></path>
                <path d="M86.2151431,76.5307648 C86.2151431,80.6469338 82.3687264,83.6211169 76.1768653,84.2904127" id="Stroke-10" stroke="#FEFEFE" stroke-width="1.67999997" stroke-linecap="round" stroke-linejoin="round"></path>
                <path d="M78.0574292,52.3921944 C78.1387903,52.7463634 78.1668458,53.1730394 77.5636514,54.1435183 C77.3911097,54.4196028 77.2017347,54.6998704 77.0081514,54.9871099" id="Stroke-12" stroke="#FEFEFE" stroke-width="1.67999997" stroke-linecap="round" stroke-linejoin="round"></path>
                <path d="M18.9770583,21.7522521 C21.6325167,19.0931958 25.6795306,17.0908859 30.5668083,16.063238" id="Stroke-14" stroke="#FEFEFE" stroke-width="1.67999997" stroke-linecap="round" stroke-linejoin="round"></path>
                <path d="M27.0936708,76.0338127 L27.0936708,87.2988972" id="Stroke-16" stroke="#010202" stroke-width="1.67999997" stroke-linecap="round" stroke-linejoin="round"></path>
                <path d="M41.0612694,40.0552606 C39.9152,43.5174718 38.9528944,43.8116831 36.1641722,42.8997676 C33.37545,41.9878521 32.7750611,41.1833028 33.9211306,37.7210915 C35.0672,34.2588803 38.8224361,29.874993 40.3121861,30.3616268 C41.8019361,30.8482606 42.2059361,36.5930493 41.0612694,40.0552606" id="Fill-18" fill="#E9D9C9"></path>
                <path d="M41.0612694,40.0552606 C39.9152,43.5174718 38.9528944,43.8116831 36.1641722,42.8997676 C33.37545,41.9878521 32.7750611,41.1833028 33.9211306,37.7210915 C35.0672,34.2588803 38.8224361,29.874993 40.3121861,30.3616268 C41.8019361,30.8482606 42.2059361,36.5930493 41.0612694,40.0552606 Z" id="Stroke-20" stroke="#010202" stroke-width="1.67999997" stroke-linecap="round" stroke-linejoin="round"></path>
                <path d="M27.53765,81.2197394 C27.53765,81.2197394 35.4914,79.3122465 37.1929694,74.2102606 C37.5899556,73.0180775 35.2585389,74.3943169 33.1501639,75.1584296 C30.6644417,76.0591901 27.9865389,76.4412465 27.9865389,76.4412465 L27.53765,81.2197394 Z" id="Fill-22" fill="#010202"></path>
            </g>
        </g>
    </g>
</svg>