<?xml version="1.0" encoding="UTF-8"?>
<svg width="88px" height="94px" viewBox="0 0 88 94" version="1.1" xmlns="http://www.w3.org/2000/svg" xmlns:xlink="http://www.w3.org/1999/xlink">
    <!-- Generator: Sketch 55.1 (78136) - https://sketchapp.com -->
    <title>Group 8</title>
    <desc>Created with Sketch.</desc>
    <defs>
        <polygon id="path-1" points="0.000238121054 1.25837838 87.7942353 1.25837838 87.7942353 94.7027027 0.000238121054 94.7027027"></polygon>
    </defs>
    <g id="Page-2" stroke="none" stroke-width="1" fill="none" fill-rule="evenodd">
        <g id="Desktop-HD" transform="translate(-223.000000, -250.000000)">
            <g id="Group-8" transform="translate(223.000000, 249.000000)">
                <g id="Group-3" transform="translate(0.000000, 0.039178)">
                    <mask id="mask-2" fill="white">
                        <use xlink:href="#path-1"></use>
                    </mask>
                    <g id="Clip-2"></g>
                    <path d="M43.0822118,94.7029622 C26.0969176,94.7042595 10.3009176,84.4919351 3.53527059,69.0203676 C-3.58755294,52.7328 0.2728,33.7689081 13.1389176,21.8298811 C23.9978588,11.7550703 39.3370353,8.67528649 52.7868,13.241773 C55.5251529,14.1706378 60.9060941,14.4041514 63.3235059,9.34469189 C64.2850353,7.33258378 65.4536235,5.3100973 66.9250353,3.89863784 C70.7206824,0.262313514 76.7383294,0.39852973 80.3683294,4.2035027 C82.9449176,6.90577297 83.4949176,10.6886919 82.4402118,14.0266378 C80.3230353,20.7219892 80.6905647,22.8677189 82.8633882,27.9323676 C83.7188,29.9250162 84.5962118,31.9877189 85.2717412,34.0205838 C89.0518588,45.4030703 88.5704471,57.4342054 83.9155059,67.8969081 C76.8677412,83.7330162 61.2645647,94.2502054 44.1679765,94.6886919 C43.8056235,94.6990703 43.4419765,94.7029622 43.0822118,94.7029622" id="Fill-1" fill="#FEFEFE" mask="url(#mask-2)"></path>
                </g>
                <path d="M42.4029294,49.846573 C42.4055176,49.8361946 42.4210471,49.8245189 42.4249294,49.8141405 C42.4016353,50.0191135 42.3511647,50.0878703 42.4029294,49.846573 M72.9544588,28.0441946 C72.0822235,25.6454919 70.8126941,22.1881946 70.8864588,19.7479784 C70.9408118,17.3168432 72.5286941,13.4833297 74.2951647,11.7501405 C74.5876353,11.4621405 74.6070471,10.988627 74.3314,10.6772757 C74.0466941,10.3555459 73.5562235,10.3270054 73.2352824,10.6124108 L73.2210471,10.6253838 C71.1206941,12.4973838 69.8330471,15.3306811 69.6751647,18.1497081 C69.4797529,20.9791135 70.0957529,23.7164108 70.9084588,26.2772757 C72.5377529,31.4392216 75.0664588,36.070573 76.0732824,41.0236541 C77.1422235,45.9819243 77.2470471,51.1347892 76.2557529,56.0450595 C75.2812824,60.9618162 72.5843412,65.5270054 69.6156353,69.4980324 C63.6769294,77.4543568 55.6728118,78.3624649 60.8052824,74.614573 C65.8834,70.7797622 68.8301059,66.5259243 70.8916353,60.4844108 C78.6925765,28.7226811 44.9601059,18.9280865 35.2283412,21.0906811 C29.3879882,22.3879784 23.9552824,24.8476541 19.8606941,29.2234378 C15.6988118,33.5123027 14.2649294,32.6236541 12.7145765,38.2928432 C11.2250471,43.9853838 8.50222353,49.6675459 9.81445882,55.3717622 C10.4291647,58.2297081 11.1836353,62.998573 12.5062235,65.5918703 C13.8158706,68.1916541 13.8469294,69.670573 15.7570471,71.8422486 C19.5281059,76.2361946 23.0364588,79.6299243 28.2918706,81.8457081 C33.5679882,84.0031135 38.5270471,86.012627 44.1875176,85.558573 C55.5239882,84.7581405 65.9377529,79.6701405 72.2245765,70.4995459 C75.3731647,65.9239784 78.2694,55.7881946 79.1235176,50.3330595 C79.9944588,44.8818162 73.8292824,30.454573 72.9544588,28.0441946" id="Fill-4" fill="#CCD3DA"></path>
                <path d="M39.6529294,47.8195459 C36.2584588,48.7120865 35.8650471,52.9321946 37.7001059,55.4204108 C39.5248118,57.8956541 42.9555176,58.5884108 45.7456353,57.5285189 C52.6821059,54.8937081 52.5177529,45.5752216 47.3244588,41.3577081 C42.2838706,37.2634378 34.8129294,38.5633297 30.7571647,43.3827892 C26.5344588,48.4020324 26.7195176,55.8874378 30.6549294,61.006573 C34.6848118,66.2489514 41.7623412,68.2325189 48.0038706,66.2930595 C54.5042235,64.2731676 59.1954,58.3587892 60.0663412,51.6452757 C60.9165765,45.1107892 58.1432824,38.5101405 53.0716353,34.3691676 C42.3226941,25.5929514 26.1552824,30.4279784 20.5841059,42.718573 C14.8226941,55.4268973 22.1176353,70.4340324 35.0691647,74.8098162 C47.9909294,79.1752216 62.1912824,72.0777081 67.2771647,59.5769514 C72.4148118,46.9503568 67.1581059,32.2325189 55.7103412,25.1285189 C44.3674,18.0893838 29.3297529,19.8329514 19.5966941,28.8634378 C9.69281176,38.0534919 6.84834118,52.8984649 12.2435176,65.2331676 C17.6594,77.6171676 30.4931647,85.5449514 43.9248118,85.1998703 C57.4742235,84.8521946 69.7282235,76.4171676 75.2321059,64.052627 C79.0432824,55.4917622 79.1494,45.7983568 76.2492824,37.0701405 C73.6377529,29.204627 66.0374,17.9752216 73.4941059,10.8284108" id="Stroke-6" stroke="#010202" stroke-width="1.56000009" stroke-linecap="round" stroke-linejoin="round"></path>
            </g>
        </g>
    </g>
</svg>