<?xml version="1.0" encoding="UTF-8"?>
<svg width="56px" height="56px" viewBox="0 0 56 56" version="1.1" xmlns="http://www.w3.org/2000/svg" xmlns:xlink="http://www.w3.org/1999/xlink">
    <!-- Generator: Sketch 55.1 (78136) - https://sketchapp.com -->
    <title>logo</title>
    <desc>Created with Sketch.</desc>
    <g id="Page-2" stroke="none" stroke-width="1" fill="none" fill-rule="evenodd">
        <g id="Desktop-HD" transform="translate(-692.000000, -3727.000000)" fill="#000000">
            <path d="M736.77845,3775.47276 L714.504237,3750.75242 L729.932809,3736.85169 C729.932809,3736.85169 729.940678,3736.84625 729.943099,3736.84443 C732.599879,3734.45521 736.860169,3734.29116 739.186441,3736.78087 C743.702179,3741.53087 746.483051,3747.9437 746.483051,3755.00061 C746.483051,3763.24031 742.699153,3770.61199 736.77845,3775.47276 L736.77845,3775.47276 Z M720.000605,3781.48245 C714.599879,3781.48245 709.57385,3779.85412 705.380751,3777.06719 L705.381961,3777.06719 L705.381961,3758.97094 L713.380145,3751.76513 L735.576877,3776.39831 C731.202179,3779.59201 725.819613,3781.48245 720.000605,3781.48245 L720.000605,3781.48245 Z M703.869249,3758.29843 L695.745763,3765.61683 C694.316586,3762.36441 693.516949,3758.77482 693.516949,3755.00061 C693.516949,3746.46489 697.580508,3738.86441 703.869249,3734.01816 L703.869249,3758.29843 Z M703.869249,3775.98184 C701.889225,3774.45581 700.134988,3772.65436 698.654964,3770.63923 C697.320218,3768.65315 697.819613,3765.94189 699.553874,3764.22155 L703.869249,3760.33354 L703.869249,3775.98184 Z M720.000605,3728.51755 C724.754843,3728.51755 729.216102,3729.78269 733.076877,3731.98487 L705.381961,3756.93523 L705.381961,3732.93281 L705.381356,3732.93281 C709.574455,3730.14588 714.599879,3728.51755 720.000605,3728.51755 L720.000605,3728.51755 Z M720.000605,3727 C704.560533,3727 692,3739.56053 692,3755.00061 C692,3770.43947 704.560533,3783 720.000605,3783 C735.439467,3783 748,3770.43947 748,3755.00061 C748,3739.56053 735.439467,3727 720.000605,3727 L720.000605,3727 Z" id="logo"></path>
        </g>
    </g>
</svg>