<?xml version="1.0" encoding="UTF-8"?>
<svg width="150px" height="150px" viewBox="0 0 150 150" version="1.1" xmlns="http://www.w3.org/2000/svg" xmlns:xlink="http://www.w3.org/1999/xlink">
    <!-- Generator: Sketch 55.1 (78136) - https://sketchapp.com -->
    <title>Moto</title>
    <desc>Created with Sketch.</desc>
    <g id="Moto" stroke="none" stroke-width="1" fill="none" fill-rule="evenodd">
        <g id="Group" transform="translate(-5.000000, -5.000000)" fill="#231F20">
            <path d="M82.8161575,16.0895745 C83.8222041,10.7133493 88.7890758,7.16280714 94.1469302,8.1741455 C96.6334569,8.64413864 98.6671853,10.0230954 100.024035,11.8410226 L97.9995784,13.1346671 C96.998168,11.8379204 95.4914164,10.8157241 93.7142221,10.4791283 C89.7518515,9.72993137 86.0645596,12.5002539 85.3026842,16.5595676 C84.5423541,20.6204324 86.9809737,24.5168771 90.9433443,25.264523 C94.1963826,25.8803226 97.0321665,24.4827522 97.9655799,21.6193617 C98.018123,21.4875154 98.0768477,21.3292999 98.1077554,21.1633288 L92.6401785,20.1318257 L93.0466152,17.9648936 L101.246435,19.5129238 C100.007035,26.1238504 95.8684906,28.5808442 90.5106362,27.5679547 C85.1558725,26.5581675 81.8132018,21.4394303 82.8161575,16.0895745" id="Fill-1"></path>
            <path d="M112.424369,29.053164 C113.700858,26.698545 112.792171,24.170199 110.691991,23.0208099 C108.614992,21.8869321 106.02956,22.507385 104.753071,24.8620041 C103.462674,27.2398902 104.320363,29.8054633 106.397362,30.9424434 C108.497542,32.0887303 111.133971,31.4326012 112.424369,29.053164 M102.603439,23.6877968 C104.570716,20.0581469 108.533086,19.2360467 111.783034,21.0105422 C115.031436,22.7865889 116.516552,26.5853123 114.549275,30.2149623 C112.581998,33.8446122 108.554722,34.7272066 105.30632,32.9527111 C102.056372,31.1766644 100.634617,27.3158957 102.603439,23.6877968" id="Fill-4"></path>
            <path d="M127.339511,33.1945326 L125.542227,34.6588016 C125.239331,33.9452807 124.791169,33.4023844 124.412549,33.070442 C122.468453,31.3579918 119.878386,32.7555621 117.622122,35.3381977 L114.484987,38.9275182 L112.642887,37.3065848 L121.210509,27.5034276 L123.052609,29.1228099 L121.106968,31.348685 C123.114425,30.0690007 124.678356,30.1837845 125.974935,31.325418 C126.664177,31.9334619 127.211244,32.7478065 127.339511,33.1945326" id="Fill-6"></path>
            <path d="M130.865001,47.8711929 C133.147536,46.2254413 133.150627,43.4054825 131.90041,41.6604585 C130.52038,39.7324008 127.927221,39.26551 125.80386,40.7964777 C123.702135,42.310383 123.224611,44.9938421 124.603095,46.9203487 C125.966126,48.8235882 128.607191,49.4998819 130.865001,47.8711929 L130.865001,47.8711929 Z M137.517889,46.0656747 L128.573193,52.5137323 C123.58005,56.1123596 120.081295,55.1971915 117.58395,51.7055923 C116.205466,49.7775347 115.893298,47.2864159 116.999794,44.9085299 L119.082975,45.9508909 C118.355098,47.4710007 118.593088,49.1912066 119.435323,50.3700673 C121.107431,52.7045216 123.456419,53.2117419 127.026261,50.6384132 L127.227161,50.4926067 C125.505601,50.6694358 123.725316,49.6162169 122.638909,48.0976582 C120.56191,45.1939382 121.033253,41.2106301 124.352743,38.8172327 C127.696959,36.4067728 131.546516,37.2412821 133.623515,40.1450021 C134.759374,41.7302594 135.173538,43.7001977 134.456479,45.2823528 L136.106951,44.0926342 L137.517889,46.0656747 Z" id="Fill-8"></path>
            <path d="M138.471083,62.5024049 C140.453814,61.4445326 141.056515,59.528884 140.319365,57.5124118 C139.563671,55.44165 137.984287,54.3589595 135.656935,54.7994811 L138.471083,62.5024049 Z M137.327497,65.4495566 L133.688113,55.4928373 C131.646657,56.6329197 131.152134,58.5982045 131.9171,60.6937845 C132.462621,62.1875251 133.596935,63.346221 135.072779,63.5742375 L135.017145,65.8544022 C132.510528,65.559687 130.609703,63.7619245 129.747377,61.4042032 C128.473979,57.9188085 129.982276,54.1836815 133.845742,52.7612931 C137.709208,51.3389046 141.187872,53.2390419 142.459725,56.7228854 C143.733124,60.20828 142.227917,63.7060837 138.364452,65.1269211 C138.024467,65.2525628 137.675209,65.3518353 137.327497,65.4495566 L137.327497,65.4495566 Z" id="Fill-10"></path>
            <path d="M139.88063,78.590906 C142.541785,78.3582361 144.139715,76.1990597 143.929542,73.8072135 C143.724006,71.4432876 141.778365,69.6253603 139.118755,69.8580302 C136.431328,70.0938023 134.774674,72.2297117 134.98021,74.5951887 C135.190383,76.987035 137.193203,78.8266781 139.88063,78.590906 M138.903946,67.4118943 C143.003856,67.0504804 145.87982,69.9076664 146.202806,73.6071174 C146.525791,77.3065683 144.192258,80.6492588 140.092348,81.0106726 C135.990893,81.3720865 133.031478,78.4931846 132.708492,74.7952848 C132.385506,71.0958339 134.804036,67.771757 138.903946,67.4118943" id="Fill-12"></path>
            <path d="M144.10788,97.1348497 L131.322899,94.8360714 L131.749425,92.4457763 L133.74761,92.8040879 C132.296492,91.7493178 131.979688,89.5653233 132.234677,88.1367303 C132.808015,84.9212327 135.243544,83.3173617 138.824204,83.9890021 L146.215787,85.3198737 L145.78926,87.7101688 L138.535217,86.4056664 C136.399493,86.0209856 134.855652,87.0773068 134.535757,88.8626603 C134.217407,90.6480137 134.847925,92.9731613 137.607985,93.4989952 L144.532861,94.7445546 L144.10788,97.1348497 Z" id="Fill-15"></path>
            <path d="M134.313376,97.8331695 L133.409325,99.9054825 C132.378552,99.4820233 131.146879,100.009408 130.511725,101.467473 C129.853391,102.976725 130.15165,104.17575 131.120608,104.60076 C132.012296,104.991646 132.77108,104.503039 133.387689,103.645263 L134.483368,102.17634 C135.891215,100.415805 137.360878,99.6898751 139.272521,100.529038 C141.235161,101.391467 142.003218,103.741433 140.953901,106.145688 C140.074576,108.166814 138.087209,109.795503 135.69186,108.742284 L136.628365,106.592415 C137.558687,106.970891 138.583278,106.293046 138.994351,105.346855 C139.496602,104.195915 139.142708,103.124082 138.224749,102.720788 C137.41033,102.364027 136.642273,102.941049 136.129205,103.629752 L134.925349,105.205702 C133.233151,107.419168 131.474501,107.40831 130.123833,106.815778 C127.906204,105.841666 127.492041,103.099264 128.573811,100.617452 C129.51186,98.4675827 131.820668,96.8606095 134.313376,97.8331695" id="Fill-17"></path>
            <path d="M120.026125,125.683753 L114.563184,120.507624 L116.224474,118.739333 L121.586965,123.820843 C123.163259,125.316135 125.051721,125.261845 126.294212,123.941831 C127.535157,122.621817 128.276942,120.329244 126.233941,118.391879 L121.114077,113.541488 L122.775367,111.774748 L137.382359,125.617054 L135.721068,127.383794 L129.126905,121.13273 C129.745059,122.795544 128.779193,124.798056 127.804054,125.834213 C125.589515,128.188832 122.656372,128.215201 120.026125,125.683753" id="Fill-19"></path>
            <path d="M107.414072,132.868443 C108.860554,135.285108 111.659248,135.519329 113.495167,134.41182 C115.521169,133.191079 116.198048,130.636364 114.852017,128.385671 C113.521439,126.161347 110.898918,125.463337 108.871371,126.684078 C106.868551,127.890859 105.983044,130.475046 107.414072,132.868443 L107.414072,132.868443 Z M108.661199,139.670159 L101.975857,128.495801 L104.049766,127.245588 L105.109901,129.016981 C105.075902,127.278162 106.267395,125.584325 107.865325,124.621072 C110.917463,122.781429 114.831926,123.580262 116.935197,127.096679 C119.053922,130.639466 117.911881,134.421127 114.859743,136.26077 C113.190726,137.265904 111.217268,137.543557 109.690426,136.673371 L110.735107,138.419946 L108.661199,139.670159 Z" id="Fill-21"></path>
            <path d="M105.827887,145.815126 C106.13851,146.682209 105.643986,147.603581 104.780116,147.915359 C103.891518,148.237995 102.922561,147.850211 102.610393,146.983128 C102.29977,146.116045 102.794294,145.194673 103.682891,144.872037 C104.546762,144.557157 105.515719,144.948043 105.827887,145.815126 L105.827887,145.815126 Z M103.730798,141.470404 L101.455989,142.297157 L97.0392753,130.038557 L99.314084,129.213355 L103.730798,141.470404 Z" id="Fill-23"></path>
            <path d="M88.6716264,145.248652 L88.5866302,142.928158 C89.3361425,143.112743 90.0392933,143.080169 90.5291808,142.977794 C93.062069,142.445756 93.5071403,139.528075 92.8086257,136.168323 L91.8365776,131.493209 L94.2334719,130.990642 L96.8869002,143.756463 L94.4915514,144.257478 L93.8888507,141.359963 C93.7003136,143.7394 92.6679955,144.926016 90.9788882,145.279675 C90.0810188,145.467362 89.1027892,145.414623 88.6716264,145.248652" id="Fill-25"></path>
            <path d="M86.7278395,128.466485 C85.3199925,130.797837 84.5241185,132.722792 85.1067292,136.098056 L82.6650188,136.257823 C82.1504051,133.07645 83.0390023,130.023822 85.0294599,128.074048 L86.7278395,128.466485 Z" id="Fill-27"></path>
            <path d="M67.6866707,146.389355 L67.9725671,144.709478 L64.9822446,144.199156 L65.3330473,142.134598 L68.3218245,142.646472 L70.1515619,131.855244 L72.5376384,132.263191 L70.707901,143.05442 L73.175883,143.474777 L72.8250803,145.539334 L70.3586437,145.118977 L70.1283811,146.466911 C69.5596789,149.825113 67.7685761,151.898977 64.3393638,151.312649 L62.9686062,151.076877 L63.351862,148.819979 L64.3115469,148.984399 C66.587901,149.373734 67.4285911,148.072334 67.6866707,146.389355" id="Fill-29"></path>
            <path d="M54.0996339,133.489517 C53.0410443,136.103175 54.5369782,138.491919 56.5212543,139.300059 C58.7126122,140.19196 61.155868,139.200787 62.1402791,136.768611 C63.1138725,134.361253 62.0954629,131.837561 59.904105,130.944108 C57.7390188,130.061514 55.1474059,130.902228 54.0996339,133.489517 L54.0996339,133.489517 Z M49.4294764,138.577231 L54.3175334,126.495461 L56.559889,127.410629 L55.7856504,129.324726 C57.1502266,128.252894 59.2164081,128.192399 60.94415,128.896614 C64.2420045,130.241445 65.9589287,133.864891 64.4197239,137.666717 C62.8697014,141.496463 59.1685011,142.850601 55.8706467,141.505769 C54.0671808,140.768981 52.6577884,139.351246 52.4352528,137.60312 L51.6702866,139.490848 L49.4294764,138.577231 Z" id="Fill-32"></path>
            <path d="M39.4893968,123.534349 C37.869832,125.594253 38.2175439,128.217218 40.0951883,129.706305 C41.7549332,131.020114 44.5613548,131.145756 46.3014599,128.930739 C48.026111,126.740539 47.4744081,124.061734 45.6616699,122.625385 C43.7840255,121.137849 41.0919625,121.496161 39.4893968,123.534349 M37.5854809,121.989421 C40.1183691,118.767719 44.1054659,118.476106 46.9010698,120.691123 C48.3630053,121.849819 49.3319625,123.684809 49.0769737,125.403463 L50.3534629,123.780979 L52.2527427,125.287128 L39.8077464,141.110231 L37.9084666,139.605632 L43.5614899,132.417684 C41.9372888,133.086222 40.0132828,132.557286 38.4848957,131.345852 C35.6892918,129.130835 35.034048,125.23439 37.5854809,121.989421" id="Fill-34"></path>
            <path d="M23.2371868,113.715525 L33.7427232,106.045175 L35.1675694,108.008909 L33.5232783,109.207934 C35.2881095,108.888401 37.0776669,110.171187 37.9276294,111.345395 C39.8423631,113.986973 39.3107502,116.859671 36.3466992,118.989375 L30.2748762,123.425614 L28.85003,121.460329 L34.8105851,117.107852 C36.566144,115.825065 36.8767667,113.976115 35.8135409,112.508744 C34.7487697,111.039822 32.6408627,109.88733 30.3521455,111.523775 L24.6604876,115.68081 L23.2371868,113.715525 Z" id="Fill-36"></path>
            <polygon id="Fill-38" points="14.5882776 112.146244 13.5482326 109.952943 31.6817959 101.289868 32.7202956 103.481618"></polygon>
            <path d="M21.3839595,90.503138 C18.8000735,91.1809828 17.5869452,93.5790336 18.1927367,95.9010789 C18.7923466,98.196755 21.0146122,99.661024 23.5984981,98.9831791 C26.2071103,98.2944763 27.482054,95.9103857 26.8839895,93.6162608 C26.2766527,91.2942155 23.9925716,89.8159863 21.3839595,90.503138 M24.218198,101.357963 C20.2357374,102.406528 16.9239745,100.073625 15.985925,96.4812025 C15.0478755,92.8903308 16.7879805,89.2001867 20.7704411,88.1516211 C24.7529017,87.1061579 28.1512063,89.4437145 29.0892558,93.0361373 C30.0273053,96.6270089 28.1991133,100.310949 24.218198,101.357963" id="Fill-41"></path>
            <path d="M14.1928132,72.8740522 L27.1756039,73.0850062 L27.1385146,75.5125285 L25.107877,75.4799547 C26.7088972,76.2865436 27.3687772,78.3914303 27.3471418,79.8417392 C27.2945986,83.106873 25.1496024,85.0814647 21.5071268,84.9946012 L14.0011853,84.8736129 L14.03982,82.4460906 L21.4066767,82.5655278 C23.5748537,82.6012038 24.9317029,81.3091105 24.9610653,79.4973878 C24.9888822,77.6841139 23.9967442,75.4908126 21.1872318,75.4163583 L14.1557239,75.3015745 L14.1928132,72.8740522 Z" id="Fill-43"></path>
            <path d="M23.6794764,70.6185504 L24.2203616,68.4221469 C25.3067682,68.6625724 26.4302641,67.9366424 26.8104291,66.3901633 C27.2045026,64.7924969 26.709979,63.6632725 25.6838425,63.4088868 C24.7396114,63.1746658 24.0720045,63.7858119 23.609934,64.735105 L22.7769707,66.3684475 C21.6905641,68.341488 20.3630773,69.3062924 18.3386212,68.8037255 C16.2585311,68.2887495 15.1072183,66.104755 15.7330998,63.5562443 C16.2616219,61.4156815 17.9430023,59.4752148 20.4805266,60.1049746 L19.9195514,62.3804859 C18.9413218,62.1679808 18.0449977,63.0102457 17.7992813,64.0122773 C17.4994764,65.2314674 18.0279985,66.2257433 19.0000465,66.4661688 C19.8639175,66.6817763 20.5237974,65.9822155 20.9116894,65.2159561 L21.8327397,63.4600741 C23.1277734,60.9922224 24.8601515,60.7021606 26.2896339,61.0573699 C28.6401665,61.6405957 29.5102191,64.2713164 28.8627022,66.9020371 C28.3017269,69.1759973 26.2973608,71.1536911 23.6794764,70.6185504" id="Fill-45"></path>
            <polygon id="Fill-47" points="28.0952633 38.1538133 39.990102 55.433429 38.6085266 57.5941565 34.4452558 51.6951997 21.0050308 49.2459616 22.4175139 47.0387001 32.5907922 48.910917 26.6843256 40.3626259"></polygon>
            <path d="M42.6631568,32.8083006 C40.8411463,30.8492203 38.1629917,30.915919 36.4151598,32.5539149 C34.6874179,34.1732972 34.4587007,36.8334894 36.2807112,38.7910185 C38.1228117,40.7702636 40.8195109,40.764059 42.5457074,39.1446767 C44.2950848,37.5051297 44.5037119,34.7859945 42.6631568,32.8083006 M34.4926992,40.4662416 C31.6831868,37.4477378 32.1545296,33.4163445 34.8574104,30.8817941 C37.5618365,28.3472437 41.6215664,28.1300851 44.4326242,31.1516911 C47.2421365,34.1701949 46.8063376,38.2822471 44.1034569,40.8167975 C41.3990308,43.351348 37.3006662,43.4878476 34.4926992,40.4662416" id="Fill-49"></path>
            <path d="M54.6249107,18.0694399 L60.6812798,29.6083143 L58.5393743,30.7421922 L57.5935979,28.9382251 C57.6554134,30.7359876 56.1347532,32.3290007 54.8536279,33.0068456 C51.9730278,34.5285065 49.2145131,33.5885202 47.5408597,30.3388977 L44.0390143,23.667477 L46.1809197,22.5351503 L49.617859,29.0840316 C50.6285416,31.0105381 52.4088267,31.5844571 54.009847,30.7390899 C55.6093218,29.8921716 57.0496219,27.9625628 55.7638605,25.4543816 L52.4830053,19.2017666 L54.6249107,18.0694399 Z" id="Fill-51"></path>
            <path d="M73.315895,20.2400947 C73.315895,21.3832793 72.3917539,22.3108566 71.2528042,22.3108566 C70.1138545,22.3108566 69.1912588,21.3832793 69.1912588,20.2400947 C69.1912588,19.0984612 70.1138545,18.170884 71.2528042,18.170884 C72.3917539,18.170884 73.315895,19.0984612 73.315895,20.2400947" id="Fill-53"></path>
        </g>
    </g>
</svg>